<svg width="72" height="72" viewBox="0 0 72 72" fill="none" xmlns="http://www.w3.org/2000/svg">
<path d="M56.1094 54.0281C53.0016 48.6281 47.1656 45 40.5 45H31.5C24.8344 45 18.9984 48.6281 15.8906 54.0281C20.8406 59.5406 28.0125 63 36 63C43.9875 63 51.1594 59.5266 56.1094 54.0281ZM0 36C0 16.1156 16.1156 0 36 0C55.8844 0 72 16.1156 72 36C72 55.8844 55.8844 72 36 72C16.1156 72 0 55.8844 0 36ZM36 38.25C41.5969 38.25 46.125 33.7219 46.125 28.125C46.125 22.5281 41.5969 18 36 18C30.4031 18 25.875 22.5281 25.875 28.125C25.875 33.7219 30.4031 38.25 36 38.25Z" fill="url(#paint0_linear_9_2009)"/>
<defs>
<linearGradient id="paint0_linear_9_2009" x1="36" y1="0" x2="36" y2="72" gradientUnits="userSpaceOnUse">
<stop stop-color="#FFD38E"/>
<stop offset="0.559295" stop-color="#A67B38"/>
<stop offset="1" stop-color="#714F19"/>
</linearGradient>
</defs>
</svg>
