<svg width="56" height="74" viewBox="0 0 56 74" fill="none" xmlns="http://www.w3.org/2000/svg">
<path d="M0 36.9928L4.15625 4.04608C4.44792 1.73404 6.43125 0 8.79375 0H33.3812C35.5687 0 37.3333 1.74849 37.3333 3.91603C37.3333 4.37844 37.2458 4.8553 37.0854 5.28881L30.3333 23.1205H50.6479C53.5937 23.1205 56 25.4903 56 28.4237C56 29.4931 55.6792 30.5335 55.0667 31.415L27.0375 72.0203C26.1771 73.263 24.7625 74 23.2604 74H22.8375C20.5479 74 18.6812 72.1504 18.6812 69.8817C18.6812 69.5493 18.725 69.2169 18.8125 68.8846L25.6667 41.6169H4.66667C2.08542 41.6169 0 39.5505 0 36.9928Z" fill="url(#paint0_linear_10_3044)"/>
<defs>
<linearGradient id="paint0_linear_10_3044" x1="28" y1="0" x2="28" y2="74" gradientUnits="userSpaceOnUse">
<stop stop-color="#FFD38E"/>
<stop offset="0.485577" stop-color="#A67B38"/>
<stop offset="0.932692" stop-color="#714F19"/>
</linearGradient>
</defs>
</svg>
