<svg width="31" height="31" viewBox="0 0 31 31" fill="none" xmlns="http://www.w3.org/2000/svg">
<path d="M4.4 0C1.97313 0 0 1.97313 0 4.4V26.4C0 28.8269 1.97313 30.8 4.4 30.8H11.1513V20.7763H7.52125V15.4H11.1513V13.0831C11.1513 7.095 13.86 4.3175 19.745 4.3175C20.8588 4.3175 22.7838 4.5375 23.5744 4.7575V9.625C23.1619 9.58375 22.44 9.55625 21.5394 9.55625C18.6519 9.55625 17.5381 10.6494 17.5381 13.4888V15.4H23.2856L22.2956 20.7763H17.5312V30.8H26.4C28.8269 30.8 30.8 28.8269 30.8 26.4V4.4C30.8 1.97313 28.8269 0 26.4 0H4.4Z" fill="#987030"/>
</svg>
