<svg width="90" height="90" viewBox="0 0 90 90" fill="none" xmlns="http://www.w3.org/2000/svg">
<path d="M70.4045 9.46856L38.8858 30.5273C34.7431 33.2934 32.1094 37.7846 31.6823 42.6893C40.5514 44.5143 47.5413 51.5148 49.3778 60.4117C54.2892 59.984 58.7594 57.3463 61.5212 53.1973L82.5337 21.6162C83.4875 20.1762 84 18.4938 84 16.7543C84 11.9209 80.0851 8 75.259 8C73.5365 8 71.8424 8.51328 70.4045 9.46856ZM43 65.0312C43 56.2057 35.8677 49.0625 27.0556 49.0625C18.2434 49.0625 11.1111 56.2057 11.1111 65.0312C11.1111 65.5873 11.1396 66.1434 11.1965 66.6852C11.4528 69.1803 9.74444 71.875 7.23889 71.875H6.55556C4.03576 71.875 2 73.9139 2 76.4375C2 78.9611 4.03576 81 6.55556 81H27.0556C35.8677 81 43 73.8568 43 65.0312Z" fill="url(#paint0_linear_10_3058)"/>
<defs>
<linearGradient id="paint0_linear_10_3058" x1="43" y1="8" x2="43" y2="103.381" gradientUnits="userSpaceOnUse">
<stop stop-color="#714F19"/>
<stop offset="0.0666479" stop-color="#A67B38"/>
<stop offset="0.365098" stop-color="#B08542"/>
<stop offset="0.720957" stop-color="#FFD38E"/>
<stop offset="0.721154" stop-color="#FFD38E"/>
</linearGradient>
</defs>
</svg>
