<svg width="36" height="36" viewBox="0 0 36 36" fill="none" xmlns="http://www.w3.org/2000/svg">
<path d="M29.2514 14.6229C29.2514 17.8497 28.2037 20.8305 26.4388 23.2489L35.3408 32.1562C36.2197 33.035 36.2197 34.4621 35.3408 35.3409C34.4618 36.2197 33.0344 36.2197 32.1555 35.3409L23.2535 26.4336C20.8346 28.1982 17.8532 29.2457 14.6257 29.2457C6.54641 29.2457 0 22.7006 0 14.6229C0 6.54514 6.54641 0 14.6257 0C22.705 0 29.2514 6.54514 29.2514 14.6229ZM14.6257 24.7464C20.2158 24.7464 24.7512 20.2119 24.7512 14.6229C24.7512 9.03383 20.2158 4.49934 14.6257 4.49934C9.0356 4.49934 4.50022 9.03383 4.50022 14.6229C4.50022 20.2119 9.0356 24.7464 14.6257 24.7464Z" fill="#987030"/>
</svg>
