<svg width="76" height="74" viewBox="0 0 76 74" fill="none" xmlns="http://www.w3.org/2000/svg">
<path d="M0 8.70748C0 3.90476 3.94734 0 8.80243 0H29.3643C31.7025 0 33.9444 0.911564 35.5948 2.54422L50.2288 17.0476C51.8793 18.6803 52.8008 20.898 52.8008 23.2109V36.4762L34.6458 54.4354H28.8554L26.6411 47.1429C25.9947 45.0068 24.0141 43.551 21.7585 43.551C20.2043 43.551 18.7464 44.2449 17.7836 45.4422L9.51762 55.6463C8.37606 57.0476 8.60987 59.1156 10.0265 60.2313C11.4432 61.3469 13.5337 61.1292 14.6615 59.7143L21.1396 51.7143L23.2302 58.6122C23.6428 60 24.9356 60.9388 26.3935 60.9388H30.726C30.6022 61.3605 30.4922 61.7959 30.4096 62.2313L28.9105 69.6463H8.80243C3.94734 69.6463 0 65.7415 0 60.9388V8.69388V8.70748ZM28.6079 7.95918V20.6803C28.6079 22.4898 30.0795 23.9456 31.9088 23.9456H44.7686L28.6079 7.95918ZM36.8877 63.5238C37.2315 61.8367 38.0705 60.2857 39.2946 59.0748L55.6478 42.898L66.6509 53.7823L50.2976 69.9592C49.0735 71.1701 47.5056 72 45.8001 72.3401L37.6029 73.9592C37.4791 73.9864 37.3415 74 37.204 74C36.1037 74 35.1959 73.1156 35.1959 72.0136C35.1959 71.8775 35.2097 71.7551 35.2372 71.619L36.8739 63.5102L36.8877 63.5238ZM73.7203 46.7891L69.7592 50.7075L58.7562 39.8231L62.7173 35.9048C65.7569 32.898 70.6807 32.898 73.7203 35.9048C76.7599 38.9116 76.7599 43.7823 73.7203 46.7891Z" fill="url(#paint0_linear_10_3046)"/>
<defs>
<linearGradient id="paint0_linear_10_3046" x1="38" y1="0" x2="37.9479" y2="86.4626" gradientUnits="userSpaceOnUse">
<stop stop-color="#FFD38E"/>
<stop offset="0.620192" stop-color="#A67B38"/>
<stop offset="1" stop-color="#714F19"/>
</linearGradient>
</defs>
</svg>
