<svg width="72" height="72" viewBox="0 0 72 72" fill="none" xmlns="http://www.w3.org/2000/svg">
<path d="M72 36C72 36.1266 72 36.2531 72 36.3797C71.9438 41.5125 67.2759 45 62.1441 45H48.3796C44.6538 45 41.6309 48.0234 41.6309 51.75C41.6309 52.2281 41.6872 52.6922 41.7715 53.1422C42.0668 54.5766 42.6854 55.9547 43.29 57.3469C44.1476 59.2875 44.9912 61.2141 44.9912 63.2531C44.9912 67.725 41.9543 71.7891 37.4833 71.9719C36.9912 71.9859 36.4991 72 35.993 72C16.1125 72 0 55.8844 0 36C0 16.1156 16.1265 0 36.007 0C55.8875 0 72 16.1156 72 36ZM18.0105 40.5C18.0105 38.0109 16 36 13.5114 36C11.0228 36 9.0123 38.0109 9.0123 40.5C9.0123 42.9891 11.0228 45 13.5114 45C16 45 18.0105 42.9891 18.0105 40.5ZM18.0105 27C20.4991 27 22.5097 24.9891 22.5097 22.5C22.5097 20.0109 20.4991 18 18.0105 18C15.522 18 13.5114 20.0109 13.5114 22.5C13.5114 24.9891 15.522 27 18.0105 27ZM40.5062 13.5C40.5062 11.0109 38.4956 9 36.007 9C33.5185 9 31.5079 11.0109 31.5079 13.5C31.5079 15.9891 33.5185 18 36.007 18C38.4956 18 40.5062 15.9891 40.5062 13.5ZM54.0035 27C56.4921 27 58.5026 24.9891 58.5026 22.5C58.5026 20.0109 56.4921 18 54.0035 18C51.5149 18 49.5044 20.0109 49.5044 22.5C49.5044 24.9891 51.5149 27 54.0035 27Z" fill="url(#paint0_linear_10_1037)"/>
<defs>
<linearGradient id="paint0_linear_10_1037" x1="36" y1="0" x2="36" y2="72" gradientUnits="userSpaceOnUse">
<stop stop-color="#FFD38E"/>
<stop offset="0.485577" stop-color="#A67B38"/>
<stop offset="0.932692" stop-color="#714F19"/>
</linearGradient>
</defs>
</svg>
