<svg width="72" height="76" viewBox="0 0 72 76" fill="none" xmlns="http://www.w3.org/2000/svg">
<path d="M9.6 0C4.305 0 0 4.26016 0 9.5V66.5C0 71.7398 4.305 76 9.6 76H52.8C58.095 76 62.4 71.7398 62.4 66.5V9.5C62.4 4.26016 58.095 0 52.8 0H9.6ZM26.4 42.75H36C42.63 42.75 48 48.0641 48 54.625C48 55.9313 46.92 57 45.6 57H16.8C15.48 57 14.4 55.9313 14.4 54.625C14.4 48.0641 19.77 42.75 26.4 42.75ZM22.8 28.5C22.8 23.9133 26.565 20.1875 31.2 20.1875C35.835 20.1875 39.6 23.9133 39.6 28.5C39.6 33.0867 35.835 36.8125 31.2 36.8125C26.565 36.8125 22.8 33.0867 22.8 28.5ZM72 11.875C72 10.5688 70.92 9.5 69.6 9.5C68.28 9.5 67.2 10.5688 67.2 11.875V21.375C67.2 22.6812 68.28 23.75 69.6 23.75C70.92 23.75 72 22.6812 72 21.375V11.875ZM72 30.875C72 29.5688 70.92 28.5 69.6 28.5C68.28 28.5 67.2 29.5688 67.2 30.875V40.375C67.2 41.6813 68.28 42.75 69.6 42.75C70.92 42.75 72 41.6813 72 40.375V30.875ZM69.6 47.5C68.28 47.5 67.2 48.5687 67.2 49.875V59.375C67.2 60.6813 68.28 61.75 69.6 61.75C70.92 61.75 72 60.6813 72 59.375V49.875C72 48.5687 70.92 47.5 69.6 47.5Z" fill="url(#paint0_linear_10_3048)"/>
<defs>
<linearGradient id="paint0_linear_10_3048" x1="36" y1="0" x2="36" y2="98.1172" gradientUnits="userSpaceOnUse">
<stop stop-color="#FFD38E"/>
<stop offset="0.591346" stop-color="#A67B38"/>
<stop offset="0.932692" stop-color="#714F19"/>
</linearGradient>
</defs>
</svg>
