<svg width="111" height="58" viewBox="0 0 111 58" fill="none" xmlns="http://www.w3.org/2000/svg">
<path d="M0 4.06996V0H16.2981V4.06996H10.2757V26.1373H6.06002V4.06996H0Z" fill="white"/>
<path d="M18.1048 26.1373L23.0732 4.21931H23.6378L25.3693 12.1352L22.2452 26.1373H18.1048ZM25.0682 22.4034L25.9339 18.3335H28.7569L24.6918 0H28.8321L34.8922 26.1373H30.7141L29.8861 22.4034H25.0682Z" fill="white"/>
<path d="M37.3011 26.1373V6.64635H37.6022L41.5168 12.882V26.1373H37.3011ZM37.3011 2.68841V0H40.8016L54.0509 21.0966V26.1373H52.0183L37.3011 2.68841ZM49.8352 10.903V0H54.0509V17.1386H53.7497L49.8352 10.903Z" fill="white"/>
<path d="M0.564598 58L5.53306 36.082H6.09766L7.82909 43.9979L4.70498 58H0.564598ZM7.52798 54.2661L8.39369 50.1961H11.2167L7.15158 31.8627H11.292L17.352 58H13.174L12.3459 54.2661H7.52798Z" fill="white"/>
<path d="M18.7823 35.9326V31.8627H35.0804V35.9326H29.058V58H24.8423V35.9326H18.7823Z" fill="white"/>
<path d="M37.2635 58V31.8627H50.9644V35.97H41.4791V42.915H47.4262V47.097H41.4791V53.8554H50.9644V58H37.2635Z" fill="white"/>
<path d="M53.9756 58V31.8627H58.1912V53.8927H68.1282V58H53.9756Z" fill="white"/>
<path d="M70.3489 58V31.8627H74.5646V58H70.3489Z" fill="white"/>
<path d="M77.6887 58V31.8627H91.3896V35.97H81.9044V42.915H87.8515V47.097H81.9044V53.8554H91.3896V58H77.6887Z" fill="white"/>
<path d="M94.4385 58V31.8627H98.6541V58H94.4385ZM100.574 46.985V43.2511H102.682C104.865 43.2511 106.069 42.218 106.295 40.1519C106.32 39.9279 106.333 39.7163 106.333 39.5172C106.333 37.4262 105.379 36.194 103.472 35.8206C103.121 35.7708 102.757 35.7459 102.38 35.7459H100.574V31.8627H102.87C106.207 31.9373 108.453 33.1695 109.607 35.5592C110.084 36.5549 110.322 37.7 110.322 38.9944C110.297 41.7575 109.444 43.7614 107.763 45.006C109.068 45.7528 109.896 47.0845 110.247 49.0013C110.297 49.3249 110.335 49.6236 110.36 49.8974L111 58H107.085L106.521 51.3536C106.32 49.2627 105.756 47.9433 104.827 47.3957C104.275 47.1219 103.585 46.985 102.757 46.985H100.574Z" fill="white"/>
</svg>
