<svg width="184" height="23" viewBox="0 0 184 23" fill="none" xmlns="http://www.w3.org/2000/svg">
<path d="M18.3545 21.7529H12.5391V13.0225H5.81543V21.7529H0V0.336914H5.81543V8.27637H12.5391V0.336914H18.3545V21.7529ZM43.0371 11.0156C43.0371 12.666 42.8369 14.1699 42.4365 15.5273C42.0459 16.875 41.4307 18.0371 40.5908 19.0137C39.751 19.9902 38.6719 20.7422 37.3535 21.2695C36.0352 21.7871 34.458 22.0459 32.6221 22.0459C30.8252 22.0459 29.2676 21.7871 27.9492 21.2695C26.6406 20.7422 25.5615 19.9951 24.7119 19.0283C23.8623 18.0518 23.2324 16.8848 22.8223 15.5273C22.4121 14.1699 22.207 12.6562 22.207 10.9863C22.207 8.75977 22.5732 6.82617 23.3057 5.18555C24.0479 3.53516 25.1904 2.26074 26.7334 1.3623C28.2764 0.454102 30.249 0 32.6514 0C35.0928 0 37.0752 0.454102 38.5986 1.3623C40.1318 2.27051 41.2549 3.5498 41.9678 5.2002C42.6807 6.85059 43.0371 8.78906 43.0371 11.0156ZM28.3008 11.0156C28.3008 12.3047 28.4473 13.4131 28.7402 14.3408C29.0332 15.2686 29.4971 15.9814 30.1318 16.4795C30.7666 16.9775 31.5967 17.2266 32.6221 17.2266C33.6865 17.2266 34.5312 16.9775 35.1562 16.4795C35.791 15.9814 36.2451 15.2686 36.5186 14.3408C36.8018 13.4131 36.9434 12.3047 36.9434 11.0156C36.9434 9.08203 36.6211 7.55371 35.9766 6.43066C35.332 5.30762 34.2236 4.74609 32.6514 4.74609C31.6064 4.74609 30.7617 5 30.1172 5.50781C29.4824 6.01562 29.0186 6.73828 28.7256 7.67578C28.4424 8.61328 28.3008 9.72656 28.3008 11.0156ZM60.0439 21.7529L58.9893 17.7393H52.0312L50.9473 21.7529H44.5898L51.5771 0.249023H59.2969L66.3721 21.7529H60.0439ZM57.7881 12.9932L56.8652 9.47754C56.7676 9.09668 56.626 8.55469 56.4404 7.85156C56.2549 7.13867 56.0693 6.40625 55.8838 5.6543C55.708 4.89258 55.5713 4.26758 55.4736 3.7793C55.3857 4.26758 55.2588 4.87305 55.0928 5.5957C54.9365 6.30859 54.7705 7.0166 54.5947 7.71973C54.4287 8.42285 54.2822 9.00879 54.1553 9.47754L53.2324 12.9932H57.7881ZM89.0918 21.7529H81.5039L73.6816 6.66504H73.5498C73.5986 7.12402 73.6426 7.67578 73.6816 8.32031C73.7207 8.96484 73.7549 9.62402 73.7842 10.2979C73.8135 10.9619 73.8281 11.5625 73.8281 12.0996V21.7529H68.7012V0.336914H76.2598L84.0527 15.2197H84.1406C84.1113 14.751 84.082 14.209 84.0527 13.5938C84.0234 12.9688 83.9941 12.3389 83.9648 11.7041C83.9453 11.0693 83.9355 10.5078 83.9355 10.0195V0.336914H89.0918V21.7529ZM102.319 9.21387H111.562V20.7568C110.459 21.1377 109.194 21.4502 107.769 21.6943C106.343 21.9287 104.849 22.0459 103.286 22.0459C101.226 22.0459 99.4189 21.6455 97.8662 20.8447C96.3135 20.0439 95.1025 18.8281 94.2334 17.1973C93.3643 15.5566 92.9297 13.4863 92.9297 10.9863C92.9297 8.74023 93.3594 6.80176 94.2188 5.1709C95.0781 3.53027 96.3428 2.26563 98.0127 1.37695C99.6924 0.478516 101.748 0.0292969 104.18 0.0292969C105.518 0.0292969 106.787 0.15625 107.988 0.410156C109.189 0.664062 110.234 0.986328 111.123 1.37695L109.292 5.91797C108.521 5.53711 107.72 5.25391 106.89 5.06836C106.06 4.87305 105.166 4.77539 104.209 4.77539C102.93 4.77539 101.899 5.06348 101.118 5.63965C100.347 6.21582 99.7852 6.9873 99.4336 7.9541C99.082 8.91113 98.9062 9.9707 98.9062 11.1328C98.9062 12.4609 99.0918 13.584 99.4629 14.502C99.8438 15.4102 100.396 16.1035 101.118 16.582C101.851 17.0508 102.734 17.2852 103.77 17.2852C104.111 17.2852 104.526 17.2607 105.015 17.2119C105.513 17.1631 105.889 17.1045 106.143 17.0361V13.6816H102.319V9.21387ZM133.169 21.7529H127.383V5.06836H122.153V0.336914H138.384V5.06836H133.169V21.7529ZM154.585 21.7529L153.53 17.7393H146.572L145.488 21.7529H139.131L146.118 0.249023H153.838L160.913 21.7529H154.585ZM152.329 12.9932L151.406 9.47754C151.309 9.09668 151.167 8.55469 150.981 7.85156C150.796 7.13867 150.61 6.40625 150.425 5.6543C150.249 4.89258 150.112 4.26758 150.015 3.7793C149.927 4.26758 149.8 4.87305 149.634 5.5957C149.478 6.30859 149.312 7.0166 149.136 7.71973C148.97 8.42285 148.823 9.00879 148.696 9.47754L147.773 12.9932H152.329ZM183.633 21.7529H176.045L168.223 6.66504H168.091C168.14 7.12402 168.184 7.67578 168.223 8.32031C168.262 8.96484 168.296 9.62402 168.325 10.2979C168.354 10.9619 168.369 11.5625 168.369 12.0996V21.7529H163.242V0.336914H170.801L178.594 15.2197H178.682C178.652 14.751 178.623 14.209 178.594 13.5938C178.564 12.9688 178.535 12.3389 178.506 11.7041C178.486 11.0693 178.477 10.5078 178.477 10.0195V0.336914H183.633V21.7529Z" fill="white"/>
</svg>
